<?xml version="1.0" standalone="no"?><!DOCTYPE svg PUBLIC "-//W3C//DTD SVG 1.1//EN" "http://www.w3.org/Graphics/SVG/1.1/DTD/svg11.dtd"><svg t="1653797820736" class="icon" viewBox="0 0 1024 1024" version="1.1" xmlns="http://www.w3.org/2000/svg" p-id="4228" xmlns:xlink="http://www.w3.org/1999/xlink" width="200" height="200"><defs><style type="text/css">@font-face { font-family: feedback-iconfont; src: url("//at.alicdn.com/t/font_1031158_u69w8yhxdu.woff2?t=1630033759944") format("woff2"), url("//at.alicdn.com/t/font_1031158_u69w8yhxdu.woff?t=1630033759944") format("woff"), url("//at.alicdn.com/t/font_1031158_u69w8yhxdu.ttf?t=1630033759944") format("truetype"); }
</style></defs><path d="M909.3 192.2H767.5c-0.8-5.4-2.5-10.8-5.1-16.1l-34.9-71.7c-11.8-24.3-40-40.1-71.3-40.1h-288c-31.3 0-59.5 15.8-71.3 40.1l-35 71.7c-2.6 5.4-4.3 10.8-5.2 16.1H113.3c-27.5 0-50 22.5-50 50v27.6c0 27.5 22.5 50 50 50h77.8v589.8c0 27.5 22.5 50 50 50h539.6c27.5 0 50-22.5 50-50V319.7h78.7c27.5 0 50-22.5 50-50v-27.6c-0.1-27.4-22.6-49.9-50.1-49.9zM386 799.2c0 17.9-14.6 32.5-32.5 32.5S321 817.1 321 799.2V416.3c0-17.9 14.6-32.5 32.5-32.5s32.5 14.6 32.5 32.5v382.9z m160.9 0c0 17.9-14.6 32.5-32.5 32.5s-32.5-14.6-32.5-32.5V416.3c0-17.9 14.6-32.5 32.5-32.5s32.5 14.6 32.5 32.5v382.9z m160.2 0c0 17.9-14.6 32.5-32.5 32.5s-32.5-14.6-32.5-32.5V416.3c0-17.9 14.6-32.5 32.5-32.5s32.5 14.6 32.5 32.5v382.9z" p-id="4229"></path></svg>